<?xml version="1.0" encoding="utf-8"?>
<!-- Generator: Adobe Illustrator 25.2.3, SVG Export Plug-In . SVG Version: 6.00 Build 0)  -->
<svg version="1.1" id="Capa_1" xmlns="http://www.w3.org/2000/svg" xmlns:xlink="http://www.w3.org/1999/xlink" x="0px" y="0px"
	 viewBox="0 0 512 512" style="enable-background:new 0 0 512 512;" xml:space="preserve">
<style type="text/css">
	.st0{fill:#FFFFFF;}
</style>
<g>
	<g>
		<path class="st0" d="M255,16C114.4,16,0,116.9,0,241c0,52.4,20.7,103.2,58.5,143.5c7.5,30.8-1.6,63.4-24.1,85.9
			C25,479.8,31.6,496,45,496c42.7,0,83.9-16.7,114.6-46.3c30.3,10.8,62.3,16.3,95.4,16.3c140.6,0,257-100.9,257-225S395.6,16,255,16
			z M137,286c-24.8,0-45-20.2-45-45s20.2-45,45-45s45,20.2,45,45S161.8,286,137,286z M257,286c-24.8,0-45-20.2-45-45s20.2-45,45-45
			s45,20.2,45,45S281.8,286,257,286z M377,286c-24.8,0-45-20.2-45-45s20.2-45,45-45s45,20.2,45,45S401.8,286,377,286z"/>
	</g>
</g>
</svg>
