<?xml version="1.0" encoding="utf-8"?>
<!-- Generator: Adobe Illustrator 25.2.3, SVG Export Plug-In . SVG Version: 6.00 Build 0)  -->
<svg version="1.1" id="Capa_1" xmlns="http://www.w3.org/2000/svg" xmlns:xlink="http://www.w3.org/1999/xlink" x="0px" y="0px"
	 viewBox="0 0 352.6 352.6" style="enable-background:new 0 0 352.6 352.6;" xml:space="preserve">
<style type="text/css">
	.st0{fill:#FFFFFF;}
</style>
<g>
	<path class="st0" d="M337.2,23c-15.9-8.6-33.7,8-44.1,17.7c-23.9,23.3-44.1,50.2-66.7,74.7c-25.1,26.9-48.3,53.9-74.1,80.2
		c-14.7,14.7-30.6,30.6-40.4,49c-22-21.4-41-44.7-65.5-63.6C28.8,167.4-0.6,157.6,0,190c1.2,42.2,38.6,87.5,66.1,116.3
		c11.6,12.2,26.9,25.1,44.7,25.7c21.4,1.2,43.5-24.5,56.3-38.6c22.6-24.5,41-52,61.8-77.1c26.9-33,54.5-65.5,80.8-99.1
		C326.2,96.4,378.2,45,337.2,23z M26.9,187.6c-0.6,0-1.2,0-2.4,0.6c-2.4-0.6-4.3-1.2-6.7-2.4l0,0C19.6,184.5,22.7,185.1,26.9,187.6z
		"/>
</g>
</svg>
