<?xml version="1.0" encoding="utf-8"?>
<!-- Generator: Adobe Illustrator 25.2.3, SVG Export Plug-In . SVG Version: 6.00 Build 0)  -->
<svg version="1.1" id="Layer_1" xmlns="http://www.w3.org/2000/svg" xmlns:xlink="http://www.w3.org/1999/xlink" x="0px" y="0px"
	 viewBox="0 0 512 512" style="enable-background:new 0 0 512 512;" xml:space="preserve">
<style type="text/css">
	.st0{fill:#FFF0CA;}
	.st1{fill:#FF0000;}
	.st2{fill:#A50000;}
	.st3{fill:#FFFFFF;}
	.st4{fill:#E0EFFF;}
	.st5{fill:#D4E8FF;}
	.st6{fill:#54768A;}
	.st7{fill:#395A6E;}
</style>
<g>
	<g>
		<g>
			<g>
				<g>
					<g>
						<path class="st0" d="M306.4,116.3c24.2-1,43-21,41.9-44.6c-1-23.6-21.5-41.9-45.7-40.9c-1.6,0.1-3.1,0.2-4.6,0.4
							c0.4-2.1,0.7-4.2,0.6-6.5C298,10.5,285.6-0.6,270.9,0c-14.6,0.6-26,12.7-25.4,26.9c-5.1-6.3-13.1-10.2-22-9.8
							c-14.2,0.6-25.2,11.9-25.4,25.6c-5.8-2.4-12.1-3.5-18.8-3.3c-3.7,0.2-7.2,0.8-10.6,1.7c-1.5-13.5-13.5-23.6-27.5-23
							c-8.7,0.4-16.2,4.8-20.8,11.3c-8.2-7.2-19.2-11.4-31.1-10.9c-24.2,1-43,21-41.9,44.6c0.1,2.1,0.3,4.1,0.7,6.1
							c-4.4-2.6-9.5-4-15-3.8C18.3,66.1,6.9,78.3,7.6,92.6s13,25.4,27.7,24.8L306.4,116.3z"/>
						<g>
							<g>
								<path class="st1" d="M273.4,448.5H82.5c-11.2,0-20.6-8.3-22-19.3L23.6,140h308.7l-36.9,289.3
									C294,440.3,284.6,448.5,273.4,448.5z"/>
								<path class="st2" d="M291.1,140l-36.9,289.3c-1.4,11-10.8,19.3-22,19.3h41.2c11.2,0,20.6-8.3,22-19.3L332.3,140L291.1,140z"
									/>
								<path class="st3" d="M224.4,448.5h-92.8L102,140h151.8L224.4,448.5z"/>
							</g>
							<path class="st4" d="M337.4,140.1H18.5C8.3,140.1,0,131.8,0,121.6v0C0,111.3,8.3,103,18.5,103h318.9
								c10.2,0,18.5,8.3,18.5,18.5v0C355.9,131.8,347.6,140.1,337.4,140.1z"/>
							<path class="st5" d="M337.4,103h-41.2c10.2,0,18.5,8.3,18.5,18.5v0c0,10.2-8.3,18.5-18.5,18.5h41.2
								c10.2,0,18.5-8.3,18.5-18.5v0C355.9,111.3,347.6,103,337.4,103z"/>
						</g>
					</g>
				</g>
			</g>
			<g>
				<g>
					<path class="st6" d="M189.4,497H365v-68.6H189.4c-5.3,0-9.7,4.3-9.7,9.7v49.3C179.8,492.7,184.1,497,189.4,497L189.4,497z"/>
					<g>
						<path class="st7" d="M262.2,428.5h15.5V497h-15.5V428.5z"/>
						<path class="st7" d="M217.1,428.5h15.5V497h-15.5V428.5z"/>
					</g>
					<g>
						<path class="st4" d="M276.2,392.6c0,65.9,52.8,119.4,117.9,119.4S512,458.6,512,392.6s-52.8-119.4-117.9-119.4
							S276.2,326.7,276.2,392.6L276.2,392.6z M363,392.6c0-17.4,13.9-31.5,31.1-31.5s31.1,14.1,31.1,31.5
							c0,17.4-13.9,31.5-31.1,31.5S363,410,363,392.6z"/>
						<g>
							<path class="st5" d="M394.1,273.3c-7,0-13.9,0.6-20.6,1.8c55.3,9.9,97.3,58.7,97.3,117.5s-42,107.7-97.3,117.5
								c6.7,1.2,13.6,1.8,20.6,1.8c65.1,0,117.9-53.4,117.9-119.4S459.2,273.3,394.1,273.3L394.1,273.3z"/>
						</g>
						<g>
							<ellipse class="st3" cx="393.9" cy="317.3" rx="15.7" ry="15.9"/>
							<ellipse class="st3" cx="446.6" cy="339.2" rx="15.7" ry="15.9"/>
							<ellipse class="st3" cx="468.5" cy="392.5" rx="15.7" ry="15.9"/>
							<ellipse class="st3" cx="446.8" cy="445.8" rx="15.7" ry="15.9"/>
							<ellipse class="st3" cx="394.2" cy="468" rx="15.7" ry="15.9"/>
							<ellipse class="st3" cx="341.5" cy="446" rx="15.7" ry="15.9"/>
							<ellipse class="st3" cx="319.6" cy="392.8" rx="15.7" ry="15.9"/>
							<ellipse class="st3" cx="341.3" cy="339.5" rx="15.7" ry="15.9"/>
						</g>
					</g>
				</g>
			</g>
		</g>
	</g>
</g>
</svg>
