<?xml version="1.0" encoding="utf-8"?>
<!-- Generator: Adobe Illustrator 25.2.3, SVG Export Plug-In . SVG Version: 6.00 Build 0)  -->
<svg version="1.1" id="Capa_1" xmlns="http://www.w3.org/2000/svg" xmlns:xlink="http://www.w3.org/1999/xlink" x="0px" y="0px"
	 viewBox="0 0 311.6 311.6" style="enable-background:new 0 0 311.6 311.6;" xml:space="preserve">
<style type="text/css">
	.st0{fill:#FFFFFF;}
</style>
<g>
	<path class="st0" d="M281.3,232c-21.4-25.1-49-44.1-71-68.5c-2.4-2.4-4.3-4.9-6.7-7.3c20.8-24.5,42.8-49,64.3-73.4
		c11.6-12.9,25.7-44.1,3.1-55.7C247,14.7,224.4,31.3,206,46c-19,15.3-36.7,32.4-52.6,50.2c-17.7-20.8-36.1-41-56.3-60
		c-14.7-13.5-53.9-50.8-75.9-30c-21.4,19-4.3,49.6,12.2,65.5c1.8,1.8,4.3,2.4,6.7,1.8c26.9,21.4,49.6,46.5,71.6,72.8
		c-28.2,36.7-53.9,75.3-82,110.8c-1.2,1.2-1.2,2.4-1.2,4.3c-11.6,8.6-17.7,28.2-7.3,39.2c19.6,20.8,44.7,8.6,63.6-6.7
		c30-23.3,54.5-56.3,78.3-87.5c18.4,20.2,37.3,39.2,59.4,55.7c17.7,13.5,45.9,33.7,68.5,20.2C312.5,269.9,291.7,243.6,281.3,232z
		 M117.3,89.4c0-1.2-0.6-2.4-1.2-3.1c-2.4-3.1-5.5-6.7-8-10.4v-0.6c4.9,6.1,9.8,12.9,14.7,19C121,93.1,119.1,91.2,117.3,89.4z
		 M180.3,93.1c-1.8,1.8-3.1,4.3-4.9,6.1c-1.8,1.2-4.3,3.1-6.1,4.3c3.7-3.7,7.3-8,11-11.6C180.3,92.5,180.3,92.5,180.3,93.1z"/>
</g>
</svg>
