<?xml version="1.0" encoding="utf-8"?>
<!-- Generator: Adobe Illustrator 25.2.3, SVG Export Plug-In . SVG Version: 6.00 Build 0)  -->
<svg version="1.1" id="Laag_1" xmlns="http://www.w3.org/2000/svg" xmlns:xlink="http://www.w3.org/1999/xlink" x="0px" y="0px"
	 viewBox="0 0 512 512" style="enable-background:new 0 0 512 512;" xml:space="preserve">
<style type="text/css">
	.st0{fill:#FFFFFF;}
</style>
<path class="st0" d="M471.4,72.6C444.9,43.8,408.5,28,369,28c-29.6,0-56.6,9.3-80.4,27.8c-12,9.3-22.9,20.7-32.5,34
	c-9.6-13.3-20.5-24.7-32.5-34C199.6,37.3,172.6,28,143,28c-39.5,0-75.9,15.8-102.4,44.6C14.4,101,0,139.8,0,181.9
	c0,43.3,16.1,82.9,50.8,124.7c31,37.4,75.5,75.4,127.1,119.3c17.6,15,37.6,32,58.3,50.2c5.5,4.8,12.5,7.4,19.8,7.4
	c7.3,0,14.3-2.6,19.8-7.4c20.7-18.1,40.7-35.2,58.3-50.2c51.6-43.9,96.1-81.9,127.1-119.3c34.6-41.8,50.8-81.4,50.8-124.7
	C512,139.8,497.6,101,471.4,72.6z"/>
</svg>
